HIERARCHY
ROOT hip
{
  OFFSET 0 0 0
  CHANNELS 6 Xposition Yposition Zposition Zrotation Yrotation Xrotation
  JOINT abdomen
  {
    OFFSET 0 20.6881 -0.73152
    CHANNELS 3 Zrotation Xrotation Yrotation
    JOINT chest
    {
      OFFSET 0 11.7043 -0.48768
      CHANNELS 3 Zrotation Xrotation Yrotation
      JOINT neck
      {
        OFFSET 0 22.1894 -2.19456
        CHANNELS 3 Zrotation Xrotation Yrotation
        JOINT head
        {
          OFFSET -0.24384 7.07133 1.2192
          CHANNELS 3 Zrotation Xrotation Yrotation
          JOINT leftEye
          {
            OFFSET 4.14528 8.04674 8.04672
            CHANNELS 3 Zrotation Xrotation Yrotation
            End Site
            {
              OFFSET 1 0 0
            }
          }
          JOINT rightEye
          {
            OFFSET -3.6576 8.04674 8.04672
            CHANNELS 3 Zrotation Xrotation Yrotation
            End Site
            {
              OFFSET 1 0 0
            }
          }
        }
      }
      JOINT rCollar
      {
        OFFSET -2.68224 19.2634 -4.8768
        CHANNELS 3 Zrotation Xrotation Yrotation
        JOINT rShldr
        {
          OFFSET -8.77824 -1.95073 1.46304
          CHANNELS 3 Zrotation Xrotation Yrotation
          JOINT rForeArm
          {
            OFFSET -28.1742 -1.7115 0.48768
            CHANNELS 3 Zrotation Xrotation Yrotation
            JOINT rHand
            {
              OFFSET -22.5879 0.773209 7.07136
              CHANNELS 3 Zrotation Xrotation Yrotation
              JOINT rThumb1
              {
                OFFSET -1.2192 -0.487915 3.41376
                CHANNELS 3 Zrotation Xrotation Yrotation
                JOINT rThumb2
                {
                  OFFSET -3.37035 -0.52449 3.41376
                  CHANNELS 3 Zrotation Xrotation Yrotation
                  End Site
                  {
                    OFFSET -1.78271 -1.18214 1.43049
                  }
                }
              }
              JOINT rIndex1
              {
                OFFSET -7.75947 0.938293 5.60832
                CHANNELS 3 Zrotation Xrotation Yrotation
                JOINT rIndex2
                {
                  OFFSET -2.54057 -0.884171 1.56538
                  CHANNELS 3 Zrotation Xrotation Yrotation
                  End Site
                  {
                    OFFSET -1.62519 -0.234802 1.16502
                  }
                }
              }
              JOINT rMid1
              {
                OFFSET -8.24714 1.18213 3.41376
                CHANNELS 3 Zrotation Xrotation Yrotation
                JOINT rMid2
                {
                  OFFSET -3.10165 -0.590103 1.0647
                  CHANNELS 3 Zrotation Xrotation Yrotation
                  End Site
                  {
                    OFFSET -2.48547 -0.328903 0.83742
                  }
                }
              }
              JOINT rRing1
              {
                OFFSET -8.82822 0.546677 1.51678
                CHANNELS 3 Zrotation Xrotation Yrotation
                JOINT rRing2
                {
                  OFFSET -2.60934 -0.819778 -0.0198488
                  CHANNELS 3 Zrotation Xrotation Yrotation
                  End Site
                  {
                    OFFSET -2.33842 -0.294052 0.168128
                  }
                }
              }
              JOINT rPinky1
              {
                OFFSET -8.27202 -0.0477905 -0.4584
                CHANNELS 3 Zrotation Xrotation Yrotation
                JOINT rPinky2
                {
                  OFFSET -1.82734 -0.647385 -0.700984
                  CHANNELS 3 Zrotation Xrotation Yrotation
                  End Site
                  {
                    OFFSET -1.69225 -0.51767 -0.607171
                  }
                }
              }
            }
          }
        }
      }
      JOINT lCollar
      {
        OFFSET 2.68224 19.2634 -4.8768
        CHANNELS 3 Zrotation Xrotation Yrotation
        JOINT lShldr
        {
          OFFSET 8.77824 -1.95073 1.46304
          CHANNELS 3 Zrotation Xrotation Yrotation
          JOINT lForeArm
          {
            OFFSET 28.1742 -1.7115 0.48768
            CHANNELS 3 Zrotation Xrotation Yrotation
            JOINT lHand
            {
              OFFSET 22.5879 0.773209 7.07136
              CHANNELS 3 Zrotation Xrotation Yrotation
              JOINT lThumb1
              {
                OFFSET 1.2192 -0.487915 3.41376
                CHANNELS 3 Zrotation Xrotation Yrotation
                JOINT lThumb2
                {
                  OFFSET 3.37035 -0.52449 3.41376
                  CHANNELS 3 Zrotation Xrotation Yrotation
                  End Site
                  {
                    OFFSET 1.78271 -1.18214 1.43049
                  }
                }
              }
              JOINT lIndex1
              {
                OFFSET 7.75947 0.938293 5.60832
                CHANNELS 3 Zrotation Xrotation Yrotation
                JOINT lIndex2
                {
                  OFFSET 2.54057 -0.884171 1.56538
                  CHANNELS 3 Zrotation Xrotation Yrotation
                  End Site
                  {
                    OFFSET 1.62519 -0.234802 1.16502
                  }
                }
              }
              JOINT lMid1
              {
                OFFSET 8.24714 1.18213 3.41376
                CHANNELS 3 Zrotation Xrotation Yrotation
                JOINT lMid2
                {
                  OFFSET 3.10165 -0.590103 1.0647
                  CHANNELS 3 Zrotation Xrotation Yrotation
                  End Site
                  {
                    OFFSET 2.48547 -0.328903 0.83742
                  }
                }
              }
              JOINT lRing1
              {
                OFFSET 8.82822 0.546677 1.51678
                CHANNELS 3 Zrotation Xrotation Yrotation
                JOINT lRing2
                {
                  OFFSET 2.60934 -0.819778 -0.0198488
                  CHANNELS 3 Zrotation Xrotation Yrotation
                  End Site
                  {
                    OFFSET 2.33842 -0.294052 0.168128
                  }
                }
              }
              JOINT lPinky1
              {
                OFFSET 8.27202 -0.0477905 -0.4584
                CHANNELS 3 Zrotation Xrotation Yrotation
                JOINT lPinky2
                {
                  OFFSET 1.82734 -0.647385 -0.700984
                  CHANNELS 3 Zrotation Xrotation Yrotation
                  End Site
                  {
                    OFFSET 1.69225 -0.51767 -0.607171
                  }
                }
              }
            }
          }
        }
      }
    }
  }
  JOINT rButtock
  {
    OFFSET -8.77824 4.35084 1.2192
    CHANNELS 3 Zrotation Xrotation Yrotation
    JOINT rThigh
    {
      OFFSET 0 -1.70687 -2.19456
      CHANNELS 3 Zrotation Xrotation Yrotation
      JOINT rShin
      {
        OFFSET 0 -36.8199 0.73152
        CHANNELS 3 Zrotation Xrotation Yrotation
        JOINT rFoot
        {
          OFFSET 0.73152 -45.1104 -5.12064
          CHANNELS 3 Zrotation Xrotation Yrotation
          End Site
          {
            OFFSET -1.1221 -3.69964 12.103
          }
        }
      }
    }
  }
  JOINT lButtock
  {
    OFFSET 8.77824 4.35084 1.2192
    CHANNELS 3 Zrotation Xrotation Yrotation
    JOINT lThigh
    {
      OFFSET 0 -1.70687 -2.19456
      CHANNELS 3 Zrotation Xrotation Yrotation
      JOINT lShin
      {
        OFFSET 0 -36.8199 0.73152
        CHANNELS 3 Zrotation Xrotation Yrotation
        JOINT lFoot
        {
          OFFSET -0.73152 -45.1104 -5.12064
          CHANNELS 3 Zrotation Xrotation Yrotation
          End Site
          {
            OFFSET 1.1221 -3.69964 12.103
          }
        }
      }
    }
  }
}
MOTION
Frames:	7
Frame Time:	0.00833333
53.3397 83.8029 -238.582 0.0 0.0 0.0 -2.02392 -0.00361483 -0.0553169 -0.559253 0.00174095 -0.0968429 2.38471e-14 7.95139e-16 6.70898e-16 7.11618e-14 9.54166e-15 1.90864e-15 -0.0 0.0 0.0 -0.0 0.0 0.0 1.18267e-14 -1.70831e-17 4.47265e-16 2.54096e-13 -1.30452e-16 8.54774e-15 4.32888e-12 -1.31695e-12 8.26944e-14 4.96953e-11 1.2506e-12 1.44397e-12 1.17191e-10 -1.46284e-13 3.3364e-12 2.02381e-10 -2.54444e-13 5.75919e-12 1.17194e-10 -1.45113e-13 3.33322e-12 7.73091 5.47488 0.417314 1.17192e-10 -1.46007e-13 3.34276e-12 2.90554 0.965183 0.102902 1.17199e-10 -1.45809e-13 3.3372e-12 10.2786 0.731801 0.0259123 1.17186e-10 -1.45908e-13 3.34276e-12 2.22167 -0.733487 -0.20892 1.16307e-14 -1.68889e-17 1.49089e-16 2.50567e-13 -3.29237e-16 6.55989e-15 4.34946e-12 1.28733e-12 9.22361e-14 4.96684e-11 -1.36615e-12 1.45033e-12 1.17188e-10 -1.7312e-13 3.3205e-12 2.02391e-10 -2.95792e-13 5.7417e-12 1.17182e-10 -1.71352e-13 3.33004e-12 -7.73091 5.47488 -0.417314 1.17188e-10 -1.72744e-13 3.32686e-12 -2.90554 0.965183 -0.102902 1.17179e-10 -1.72744e-13 3.32766e-12 -10.2786 0.731801 -0.0259123 1.17187e-10 -1.74533e-13 3.3205e-12 -2.22167 -0.733487 0.20892 -2.03217e-16 0.0 -3.88251e-19 -1.11529 -1.92526 0.00145947 -0.00851951 -2.07866 -0.0699281 -0.419613 3.99848 0.126652 2.03217e-16 0.0 3.88251e-19 -1.97248 -7.47864 0.198857 -0.00485719 7.9805 -0.12097 0.466682 -0.507223 -0.0427083
53.8208 83.3849 -239.581 1.1976 2.0213 6.1472 -2.60946 -0.299913 -2.20528 0.602066 -1.53783 -0.640107 -4.69485 3.39533 -0.571477 5.70423 -5.05658 0.0767661 -0.0 0.0 0.0 -0.0 0.0 0.0 2.77055e-14 -2.3234e-15 6.40265e-15 21.4509 4.13996 -3.16182 -2.38042 -0.867884 3.91784 0.0270258 3.67113 0.512217 -2.68467e-10 -2.3917e-11 1.23516e-10 -4.62584e-10 -4.15139e-11 2.17867e-10 -2.68464e-10 -2.39152e-11 1.23512e-10 7.73091 5.47488 0.417314 -2.68467e-10 -2.3916e-11 1.23521e-10 2.90554 0.965183 0.102902 -2.6846e-10 -2.39156e-11 1.23517e-10 10.2786 0.731801 0.0259123 -2.68472e-10 -2.39154e-11 1.23524e-10 2.22167 -0.733487 -0.20892 2.75864e-14 -2.32297e-15 6.13165e-15 -20.4863 7.43762 -1.36644 5.18783 -2.58851 -7.83601 -0.073742 6.03001 -0.830606 5.72373e-11 -4.87359e-10 -2.88445e-10 9.39133e-11 -8.47036e-10 -4.98059e-10 5.72318e-11 -4.87359e-10 -2.88433e-10 -7.73091 5.47488 -0.417314 5.72367e-11 -4.87361e-10 -2.88439e-10 -2.90554 0.965183 -0.102902 5.72301e-11 -4.87361e-10 -2.88439e-10 -10.2786 0.731801 -0.0259123 5.72368e-11 -4.87362e-10 -2.88447e-10 -2.22167 -0.733487 0.20892 -2.03217e-16 0.0 -3.88251e-19 -2.00611 -11.5053 2.65587 0.0233336 0.509778 0.103795 -0.623846 1.963 -6.1868 2.03217e-16 0.0 3.88251e-19 -3.7758 -4.77222 -1.1797 -0.0430303 10.6818 -0.293997 0.807415 -3.95063 3.24172
53.6985 83.3121 -238.501 1.1241 1.7467 6.4476 -3.26367 -0.606241 -4.47767 1.80762 -3.16316 -1.21495 -9.59378 6.97386 -1.18191 11.7558 -10.398 0.164547 -0.0 0.0 0.0 -0.0 0.0 0.0 4.45844e-14 -3.68523e-15 1.26756e-14 44.6217 8.51782 -6.52606 -4.77514 -1.77533 8.07411 -0.0163784 7.50321 1.05409 -6.7488e-10 -5.61565e-11 2.51839e-10 -1.16334e-09 -9.74578e-11 4.44263e-10 -6.74878e-10 -5.61539e-11 2.51834e-10 7.73091 5.47488 0.417314 -6.74882e-10 -5.61546e-11 2.51841e-10 2.90554 0.965183 0.102902 -6.74875e-10 -5.61541e-11 2.5184e-10 10.2786 0.731801 0.0259123 -6.74886e-10 -5.61534e-11 2.51848e-10 2.22167 -0.733487 -0.20892 4.45486e-14 -3.68453e-15 1.24334e-14 -41.748 15.2808 -2.90248 9.90975 -5.16357 -16.1707 0.0425537 12.4055 -1.74054 4.10142e-12 -1.00671e-09 -6.04786e-10 -3.21933e-12 -1.75022e-09 -1.04454e-09 4.09636e-12 -1.00671e-09 -6.04772e-10 -7.73091 5.47488 -0.417314 4.10085e-12 -1.00672e-09 -6.04781e-10 -2.90554 0.965183 -0.102902 4.09672e-12 -1.00672e-09 -6.04781e-10 -10.2786 0.731801 -0.0259123 4.10161e-12 -1.00672e-09 -6.0479e-10 -2.22167 -0.733487 0.20892 -2.03217e-16 0.0 -3.88251e-19 -1.95516 -21.5391 5.8312 0.0398572 3.13041 0.285833 -1.33794 -0.179761 -12.9889 2.03217e-16 0.0 3.88251e-19 -5.57179 -1.95787 -2.65672 -0.0649148 13.5337 -0.480138 1.61361 -7.60842 6.80244
53.6832 83.1818 -237.311 1.444 1.4433 6.3928 -3.84709 -0.887426 -6.50589 2.83688 -4.61516 -1.73156 -13.8786 10.1819 -1.73881 17.1546 -15.1696 0.237684 -0.0 0.0 0.0 -0.0 0.0 0.0 5.94631e-14 -6.93603e-15 1.83134e-14 65.7438 12.2669 -9.68382 -6.78765 -2.55501 11.764 -0.118956 11.0098 1.56226 -1.03978e-09 -7.14584e-11 3.63876e-10 -1.79251e-09 -1.24033e-10 6.42082e-10 -1.03978e-09 -7.14553e-11 3.6387e-10 7.73091 5.47488 0.417314 -1.03978e-09 -7.14559e-11 3.63877e-10 2.90554 0.965183 0.102902 -1.03978e-09 -7.14552e-11 3.63877e-10 10.2786 0.731801 0.0259123 -1.03979e-09 -7.14543e-11 3.63887e-10 2.22167 -0.733487 -0.20892 5.94979e-14 -6.93512e-15 1.80968e-14 -60.3228 22.26 -4.39277 13.4917 -7.18578 -23.6811 0.326243 18.0744 -2.60674 -6.26646e-11 -1.46173e-09 -8.71976e-10 -1.23042e-10 -2.54052e-09 -1.50566e-09 -6.26693e-11 -1.46173e-09 -8.7196e-10 -7.73091 5.47488 -0.417314 -6.26651e-11 -1.46174e-09 -8.71972e-10 -2.90554 0.965183 -0.102902 -6.26672e-11 -1.46174e-09 -8.71972e-10 -10.2786 0.731801 -0.0259123 -6.26636e-11 -1.46174e-09 -8.71981e-10 -2.22167 -0.733487 0.20892 -2.03217e-16 0.0 -3.88251e-19 -0.768017 -30.3868 9.05702 0.0398147 5.68649 0.453368 -2.35678 -1.96282 -18.8136 2.03217e-16 0.0 3.88251e-19 -6.99257 0.636207 -3.9214 -0.0684467 16.0839 -0.652657 2.68464 -10.6965 9.96225
53.6943 83.1495 -236.048 1.8737 1.3414 6.1141 -4.20868 -1.11035 -7.92306 3.48712 -5.63547 -2.09799 -16.7733 12.4676 -2.13907 20.8871 -18.5168 0.266187 -0.0 0.0 0.0 -0.0 0.0 0.0 6.9341e-14 -1.49092e-14 2.23633e-14 80.7517 14.5862 -12.1309 -8.09695 -3.06266 14.2778 -0.236082 13.7058 1.96422 -1.3009e-09 -4.44164e-11 4.35198e-10 -2.24272e-09 -7.71857e-11 7.68459e-10 -1.3009e-09 -4.44133e-11 4.35192e-10 7.73091 5.47488 0.417314 -1.30091e-09 -4.44139e-11 4.35198e-10 2.90554 0.965183 0.102902 -1.3009e-09 -4.44133e-11 4.352e-10 10.2786 0.731801 0.0259123 -1.30091e-09 -4.44121e-11 4.35211e-10 2.22167 -0.733487 -0.20892 6.94153e-14 -1.49083e-14 2.21645e-14 -73.0224 27.1315 -5.48557 15.6637 -8.37847 -28.9659 0.632395 21.9918 -3.25379 -1.63506e-10 -1.75592e-09 -1.01629e-09 -2.9959e-10 -3.04863e-09 -1.75341e-09 -1.63511e-10 -1.75592e-09 -1.01627e-09 -7.73091 5.47488 -0.417314 -1.63506e-10 -1.75592e-09 -1.01628e-09 -2.90554 0.965183 -0.102902 -1.63508e-10 -1.75592e-09 -1.01628e-09 -10.2786 0.731801 -0.0259123 -1.63504e-10 -1.75592e-09 -1.01629e-09 -2.22167 -0.733487 0.20892 -2.03217e-16 0.0 -3.88251e-19 0.887996 -36.5625 11.3436 0.0272121 8.08131 0.582942 -3.14958 -3.04516 -22.1677 2.03217e-16 0.0 3.88251e-19 -7.75228 2.68752 -4.65834 -0.0620053 17.8804 -0.781148 3.51233 -12.5072 11.9627
53.5454 83.2291 -234.744 1.6776 1.2919 5.8764 -4.26398 -1.25817 -8.47665 3.61692 -6.05239 -2.25019 -17.7594 13.4917 -2.30962 22.2442 -19.9121 0.208726 -0.0 0.0 0.0 -0.0 0.0 0.0 7.35803e-14 -3.4437e-14 2.47852e-14 86.7426 14.9362 -13.4508 -8.52017 -3.21665 15.1192 -0.314781 15.3373 2.21197 -1.46195e-09 6.23795e-11 4.6661e-10 -2.5202e-09 1.07964e-10 8.25004e-10 -1.46194e-09 6.2382e-11 4.66603e-10 7.73091 5.47488 0.417314 -1.46195e-09 6.23813e-11 4.6661e-10 2.90554 0.965183 0.102902 -1.46194e-09 6.23815e-11 4.66613e-10 10.2786 0.731801 0.0259123 -1.46195e-09 6.23828e-11 4.66625e-10 2.22167 -0.733487 -0.20892 7.36464e-14 -3.44362e-14 2.45957e-14 -77.8993 29.0948 -5.8234 16.4512 -8.79134 -31.0548 0.774208 23.4612 -3.51007 -3.46512e-10 -1.86457e-09 -9.97042e-10 -6.1519e-10 -3.22898e-09 -1.71634e-09 -3.46518e-10 -1.86457e-09 -9.97027e-10 -7.73091 5.47488 -0.417314 -3.46512e-10 -1.86457e-09 -9.97038e-10 -2.90554 0.965183 -0.102902 -3.46515e-10 -1.86458e-09 -9.9704e-10 -10.2786 0.731801 -0.0259123 -3.46509e-10 -1.86458e-09 -9.97048e-10 -2.22167 -0.733487 0.20892 -2.03217e-16 0.0 -3.88251e-19 1.81247 -39.2663 11.3351 0.00965114 10.3345 0.664891 -3.23695 -3.39265 -21.8421 2.03217e-16 0.0 3.88251e-19 -7.75108 4.06715 -4.67421 -0.0585581 18.4892 -0.842754 3.61685 -12.6299 12.2768
53.3009 83.2466 -233.43 1.0464 1.309 5.7994 -4.09355 -1.35329 -8.41361 3.38246 -6.03866 -2.24845 -17.4002 13.6142 -2.3107 21.9042 -19.9112 0.0897044 -0.0 0.0 0.0 -0.0 0.0 0.0 7.37271e-14 -6.19827e-14 2.60159e-14 86.1732 13.9178 -13.9303 -8.33312 -3.1266 14.7653 -0.349326 16.206 2.34373 -1.54935e-09 2.25168e-10 4.68699e-10 -2.6706e-09 3.9021e-10 8.30233e-10 -1.54934e-09 2.25169e-10 4.68693e-10 7.73091 5.47488 0.417314 -1.54935e-09 2.25168e-10 4.68701e-10 2.90554 0.965183 0.102902 -1.54935e-09 2.25168e-10 4.68705e-10 10.2786 0.731801 0.0259123 -1.54936e-09 2.25169e-10 4.68717e-10 2.22167 -0.733487 -0.20892 7.37511e-14 -6.19822e-14 2.58296e-14 -77.2981 28.9912 -5.55411 16.3734 -8.75444 -30.8401 0.749899 23.1857 -3.4623 -5.86567e-10 -1.83882e-09 -8.60569e-10 -1.02727e-09 -3.17202e-09 -1.47517e-09 -5.86573e-10 -1.83882e-09 -8.60558e-10 -7.73091 5.47488 -0.417314 -5.86566e-10 -1.83882e-09 -8.60565e-10 -2.90554 0.965183 -0.102902 -5.86571e-10 -1.83883e-09 -8.60568e-10 -10.2786 0.731801 -0.0259123 -5.86562e-10 -1.83882e-09 -8.60575e-10 -2.22167 -0.733487 0.20892 -2.03217e-16 0.0 -3.88251e-19 1.87565 -39.5171 9.42875 -0.00874041 12.4825 0.71254 -2.77045 -3.22766 -18.891 2.03217e-16 0.0 3.88251e-19 -7.24395 4.96626 -4.16982 -0.0616299 18.256 -0.85487 3.16561 -11.5592 11.3743
